solid rj45_tinymicroV2
facet normal 0.0 0.0 1.0
outer loop
vertex 19.55 36.0 25.0
vertex 12.05 37.7 25.0
vertex 12.05 36.0 25.0
endloop
endfacet
facet normal 0.0 0.0 1.0
outer loop
vertex 12.05 37.7 25.0
vertex 19.55 36.0 25.0
vertex 19.55 37.7 25.0
endloop
endfacet
facet normal -1.74072005095549e-16 1.54943213326808e-16 1.0
outer loop
vertex -0.399999999999999 1.3 29.5
vertex 1.3 3.0 29.5
vertex -0.399999999999999 37.7 29.5
endloop
endfacet
facet normal -1.74072005095549e-16 1.54943213326808e-16 1.0
outer loop
vertex 1.3 3.0 29.5
vertex -0.399999999999999 1.3 29.5
vertex 32.0 1.3 29.5
endloop
endfacet
facet normal -1.74072005095549e-16 1.54943213326808e-16 1.0
outer loop
vertex -0.399999999999999 37.7 29.5
vertex 1.3 3.0 29.5
vertex 1.3 5.0 29.5
endloop
endfacet
facet normal -1.74072005095549e-16 1.54943213326808e-16 1.0
outer loop
vertex 1.3 3.0 29.5
vertex 32.0 1.3 29.5
vertex 3.3 3.0 29.5
endloop
endfacet
facet normal -1.74072005095549e-16 1.54943213326808e-16 1.0
outer loop
vertex 3.3 3.0 29.5
vertex 32.0 1.3 29.5
vertex 28.3 3.0 29.5
endloop
endfacet
facet normal -1.74072005095549e-16 1.54943213326808e-16 1.0
outer loop
vertex 28.3 3.0 29.5
vertex 32.0 1.3 29.5
vertex 30.3 3.0 29.5
endloop
endfacet
facet normal -1.74072005095549e-16 1.54943213326808e-16 1.0
outer loop
vertex 30.3 3.0 29.5
vertex 32.0 1.3 29.5
vertex 30.3 5.0 29.5
endloop
endfacet
facet normal -1.74072005095549e-16 1.54943213326808e-16 1.0
outer loop
vertex 30.3 5.0 29.5
vertex 32.0 1.3 29.5
vertex 30.3 34.0 29.5
endloop
endfacet
facet normal -1.74072005095549e-16 1.54943213326808e-16 1.0
outer loop
vertex 30.3 34.0 29.5
vertex 32.0 1.3 29.5
vertex 30.3 36.0 29.5
endloop
endfacet
facet normal -1.74072005095549e-16 1.54943213326808e-16 1.0
outer loop
vertex -0.399999999999999 37.7 29.5
vertex 1.3 36.0 29.5
vertex 32.0 37.7 29.5
endloop
endfacet
facet normal -1.74072005095549e-16 1.54943213326808e-16 1.0
outer loop
vertex 1.3 36.0 29.5
vertex -0.399999999999999 37.7 29.5
vertex 1.3 5.0 29.5
endloop
endfacet
facet normal -1.74072005095549e-16 1.54943213326808e-16 1.0
outer loop
vertex 1.3 36.0 29.5
vertex 1.3 5.0 29.5
vertex 1.3 34.0 29.5
endloop
endfacet
facet normal -1.74072005095549e-16 1.54943213326808e-16 1.0
outer loop
vertex 32.0 37.7 29.5
vertex 1.3 36.0 29.5
vertex 3.3 36.0 29.5
endloop
endfacet
facet normal -1.74072005095549e-16 1.54943213326808e-16 1.0
outer loop
vertex 32.0 37.7 29.5
vertex 3.3 36.0 29.5
vertex 28.3 36.0 29.5
endloop
endfacet
facet normal -1.74072005095549e-16 1.54943213326808e-16 1.0
outer loop
vertex 32.0 37.7 29.5
vertex 28.3 36.0 29.5
vertex 30.3 36.0 29.5
endloop
endfacet
facet normal -1.74072005095549e-16 1.54943213326808e-16 1.0
outer loop
vertex 32.0 37.7 29.5
vertex 30.3 36.0 29.5
vertex 32.0 1.3 29.5
endloop
endfacet
facet normal -1.0 0.0 0.0
outer loop
vertex 23.3 3.0 25.0
vertex 23.3 1.3 6.0
vertex 23.3 1.3 25.0
endloop
endfacet
facet normal -1.0 0.0 0.0
outer loop
vertex 23.3 1.3 6.0
vertex 23.3 3.0 25.0
vertex 23.3 3.0 6.0
endloop
endfacet
facet normal 0.0 1.0 0.0
outer loop
vertex -0.399999999999999 37.7 29.5
vertex 32.0 37.7 1.30000000000001
vertex -0.399999999999996 37.7 1.30000000000001
endloop
endfacet
facet normal 0.0 1.0 0.0
outer loop
vertex 32.0 37.7 1.30000000000001
vertex -0.399999999999999 37.7 29.5
vertex 12.05 37.7 25.0
endloop
endfacet
facet normal 0.0 1.0 0.0
outer loop
vertex 12.05 37.7 25.0
vertex -0.399999999999999 37.7 29.5
vertex 12.05 37.7 28.0
endloop
endfacet
facet normal 0.0 1.0 0.0
outer loop
vertex 12.05 37.7 28.0
vertex -0.399999999999999 37.7 29.5
vertex 19.55 37.7 28.0
endloop
endfacet
facet normal 0.0 1.0 0.0
outer loop
vertex 32.0 37.7 1.30000000000001
vertex 19.55 37.7 25.0
vertex 32.0 37.7 29.5
endloop
endfacet
facet normal 0.0 1.0 0.0
outer loop
vertex 19.55 37.7 25.0
vertex 32.0 37.7 1.30000000000001
vertex 12.05 37.7 25.0
endloop
endfacet
facet normal 0.0 1.0 0.0
outer loop
vertex 32.0 37.7 29.5
vertex 19.55 37.7 25.0
vertex 19.55 37.7 28.0
endloop
endfacet
facet normal 0.0 1.0 0.0
outer loop
vertex 32.0 37.7 29.5
vertex 19.55 37.7 28.0
vertex -0.399999999999999 37.7 29.5
endloop
endfacet
facet normal -1.0 0.0 0.0
outer loop
vertex 19.55 37.7 28.0
vertex 19.55 36.0 25.0
vertex 19.55 36.0 28.0
endloop
endfacet
facet normal -1.0 0.0 0.0
outer loop
vertex 19.55 36.0 25.0
vertex 19.55 37.7 28.0
vertex 19.55 37.7 25.0
endloop
endfacet
facet normal 1.0 0.0 0.0
outer loop
vertex 12.05 37.7 25.0
vertex 12.05 36.0 28.0
vertex 12.05 36.0 25.0
endloop
endfacet
facet normal 1.0 0.0 0.0
outer loop
vertex 12.05 36.0 28.0
vertex 12.05 37.7 25.0
vertex 12.05 37.7 28.0
endloop
endfacet
facet normal 1.0 0.0 0.0
outer loop
vertex 32.0 37.7 1.30000000000001
vertex 32.0 1.3 29.5
vertex 32.0 1.3 1.30000000000002
endloop
endfacet
facet normal 1.0 0.0 0.0
outer loop
vertex 32.0 1.3 29.5
vertex 32.0 37.7 1.30000000000001
vertex 32.0 37.7 29.5
endloop
endfacet
facet normal 0.0 0.0 1.0
outer loop
vertex 23.3 1.3 6.0
vertex 8.29999999999998 3.0 6.0
vertex 8.29999999999998 1.3 6.0
endloop
endfacet
facet normal 0.0 0.0 1.0
outer loop
vertex 8.29999999999998 3.0 6.0
vertex 23.3 1.3 6.0
vertex 23.3 3.0 6.0
endloop
endfacet
facet normal -1.0 -3.53832459480588e-34 -1.18748588582469e-16
outer loop
vertex -0.399999999999999 1.3 29.5
vertex -0.399999999999996 37.7 1.30000000000001
vertex -0.399999999999996 1.3 1.30000000000001
endloop
endfacet
facet normal -1.0 -3.53832459480588e-34 -1.18748588582469e-16
outer loop
vertex -0.399999999999996 37.7 1.30000000000001
vertex -0.399999999999999 1.3 29.5
vertex -0.399999999999999 37.7 29.5
endloop
endfacet
facet normal 1.74072005095549e-16 -1.45259262493882e-16 -1.0
outer loop
vertex 32.0 37.7 1.30000000000001
vertex -0.399999999999996 1.3 1.30000000000001
vertex -0.399999999999996 37.7 1.30000000000001
endloop
endfacet
facet normal 1.74072005095549e-16 -1.45259262493882e-16 -1.0
outer loop
vertex -0.399999999999996 1.3 1.30000000000001
vertex 32.0 37.7 1.30000000000001
vertex 32.0 1.3 1.30000000000002
endloop
endfacet
facet normal 0.0 0.0 -1.0
outer loop
vertex 19.55 37.7 28.0
vertex 12.05 36.0 28.0
vertex 12.05 37.7 28.0
endloop
endfacet
facet normal 0.0 0.0 -1.0
outer loop
vertex 12.05 36.0 28.0
vertex 19.55 37.7 28.0
vertex 19.55 36.0 28.0
endloop
endfacet
facet normal -0.707106781186547 -0.707106781186549 0.0
outer loop
vertex 30.3 34.0 5.00000000000001
vertex 28.3 36.0 26.5
vertex 28.3 36.0 3.00000000000001
endloop
endfacet
facet normal -0.707106781186547 -0.707106781186549 0.0
outer loop
vertex 28.3 36.0 26.5
vertex 30.3 34.0 5.00000000000001
vertex 30.3 34.0 26.5
endloop
endfacet
facet normal -0.707106781186546 0.707106781186549 -2.14124726285601e-17
outer loop
vertex 28.3 3.0 26.5
vertex 30.3 5.0 5.00000000000002
vertex 28.3 3.0 3.00000000000002
endloop
endfacet
facet normal -0.707106781186546 0.707106781186549 -2.14124726285601e-17
outer loop
vertex 30.3 5.0 5.00000000000002
vertex 28.3 3.0 26.5
vertex 30.3 5.0 26.5
endloop
endfacet
facet normal -0.707106781186546 2.37015704973669e-16 0.707106781186549
outer loop
vertex 30.3 5.0 5.00000000000002
vertex 28.3 36.0 3.00000000000001
vertex 28.3 3.0 3.00000000000002
endloop
endfacet
facet normal -0.707106781186546 2.37015704973669e-16 0.707106781186549
outer loop
vertex 28.3 36.0 3.00000000000001
vertex 30.3 5.0 5.00000000000002
vertex 30.3 34.0 5.00000000000001
endloop
endfacet
facet normal 1.0 2.58748645515041e-17 6.61158822815736e-18
outer loop
vertex 1.3 34.0 5.00000000000001
vertex 1.3 5.0 26.5
vertex 1.3 5.0 5.00000000000001
endloop
endfacet
facet normal 1.0 2.58748645515041e-17 6.61158822815736e-18
outer loop
vertex 1.3 5.0 26.5
vertex 1.3 34.0 5.00000000000001
vertex 1.3 5.0 29.5
endloop
endfacet
facet normal 1.0 2.58748645515041e-17 6.61158822815736e-18
outer loop
vertex 1.3 5.0 29.5
vertex 1.3 34.0 5.00000000000001
vertex 1.3 34.0 29.5
endloop
endfacet
facet normal 1.0 2.58748645515041e-17 6.61158822815736e-18
outer loop
vertex 1.3 34.0 29.5
vertex 1.3 34.0 5.00000000000001
vertex 1.3 34.0 9.98784152409455
endloop
endfacet
facet normal 1.0 2.58748645515041e-17 6.61158822815736e-18
outer loop
vertex 1.3 34.0 29.5
vertex 1.3 34.0 9.98784152409455
vertex 1.3 34.0 26.5
endloop
endfacet
facet normal 9.94176412052974e-33 1.0 -2.66034573825274e-17
outer loop
vertex 3.3 3.0 3.00000000000001
vertex 8.29999999999998 3.0 6.0
vertex 28.3 3.0 3.00000000000002
endloop
endfacet
facet normal 9.94176412052974e-33 1.0 -2.66034573825274e-17
outer loop
vertex 8.29999999999998 3.0 6.0
vertex 3.3 3.0 3.00000000000001
vertex 3.3 3.0 26.5
endloop
endfacet
facet normal 9.94176412052974e-33 1.0 -2.66034573825274e-17
outer loop
vertex 8.29999999999998 3.0 6.0
vertex 3.3 3.0 26.5
vertex 8.29999999999998 3.0 25.0
endloop
endfacet
facet normal 9.94176412052974e-33 1.0 -2.66034573825274e-17
outer loop
vertex 8.29999999999998 3.0 25.0
vertex 3.3 3.0 26.5
vertex 23.3 3.0 25.0
endloop
endfacet
facet normal 9.94176412052974e-33 1.0 -2.66034573825274e-17
outer loop
vertex 28.3 3.0 3.00000000000002
vertex 23.3 3.0 6.0
vertex 28.3 3.0 26.5
endloop
endfacet
facet normal 9.94176412052974e-33 1.0 -2.66034573825274e-17
outer loop
vertex 23.3 3.0 6.0
vertex 28.3 3.0 3.00000000000002
vertex 8.29999999999998 3.0 6.0
endloop
endfacet
facet normal 9.94176412052974e-33 1.0 -2.66034573825274e-17
outer loop
vertex 28.3 3.0 26.5
vertex 23.3 3.0 6.0
vertex 23.3 3.0 25.0
endloop
endfacet
facet normal 9.94176412052974e-33 1.0 -2.66034573825274e-17
outer loop
vertex 28.3 3.0 26.5
vertex 23.3 3.0 25.0
vertex 3.3 3.0 26.5
endloop
endfacet
facet normal 9.94176412052974e-33 1.0 -2.66034573825274e-17
outer loop
vertex 28.3 3.0 26.5
vertex 3.3 3.0 26.5
vertex 3.3 3.0 29.5
endloop
endfacet
facet normal 9.94176412052974e-33 1.0 -2.66034573825274e-17
outer loop
vertex 28.3 3.0 26.5
vertex 3.3 3.0 29.5
vertex 28.3 3.0 29.5
endloop
endfacet
facet normal 0.0 -1.0 0.0
outer loop
vertex 30.3 36.0 29.5
vertex 28.3 36.0 26.5
vertex 30.3 36.0 26.5
endloop
endfacet
facet normal 0.0 -1.0 0.0
outer loop
vertex 28.3 36.0 26.5
vertex 30.3 36.0 29.5
vertex 28.3 36.0 29.5
endloop
endfacet
facet normal 0.0 -1.0 0.0
outer loop
vertex 28.3 36.0 26.5
vertex 3.3 36.0 3.00000000000001
vertex 28.3 36.0 3.00000000000001
endloop
endfacet
facet normal 0.0 -1.0 0.0
outer loop
vertex 3.3 36.0 3.00000000000001
vertex 28.3 36.0 26.5
vertex 3.3 36.0 9.98784152409455
endloop
endfacet
facet normal 0.0 -1.0 0.0
outer loop
vertex 3.3 36.0 9.98784152409455
vertex 28.3 36.0 26.5
vertex 19.55 36.0 25.0
endloop
endfacet
facet normal 0.0 -1.0 0.0
outer loop
vertex 19.55 36.0 25.0
vertex 28.3 36.0 26.5
vertex 19.55 36.0 28.0
endloop
endfacet
facet normal 0.0 -1.0 0.0
outer loop
vertex 19.55 36.0 28.0
vertex 28.3 36.0 26.5
vertex 28.3 36.0 29.5
endloop
endfacet
facet normal 0.0 -1.0 0.0
outer loop
vertex 19.55 36.0 28.0
vertex 28.3 36.0 29.5
vertex 12.05 36.0 28.0
endloop
endfacet
facet normal 0.0 -1.0 0.0
outer loop
vertex 3.3 36.0 9.98784152409455
vertex 12.05 36.0 25.0
vertex 3.3 36.0 26.5
endloop
endfacet
facet normal 0.0 -1.0 0.0
outer loop
vertex 12.05 36.0 25.0
vertex 3.3 36.0 9.98784152409455
vertex 19.55 36.0 25.0
endloop
endfacet
facet normal 0.0 -1.0 0.0
outer loop
vertex 3.3 36.0 26.5
vertex 12.05 36.0 25.0
vertex 12.05 36.0 28.0
endloop
endfacet
facet normal 0.0 -1.0 0.0
outer loop
vertex 3.3 36.0 26.5
vertex 12.05 36.0 28.0
vertex 3.3 36.0 29.5
endloop
endfacet
facet normal 0.0 -1.0 0.0
outer loop
vertex 3.3 36.0 29.5
vertex 12.05 36.0 28.0
vertex 28.3 36.0 29.5
endloop
endfacet
facet normal -1.12798659301916e-16 1.60225368326585e-16 1.0
outer loop
vertex 28.3 3.0 3.00000000000002
vertex 3.3 36.0 3.00000000000001
vertex 3.3 3.0 3.00000000000001
endloop
endfacet
facet normal -1.12798659301916e-16 1.60225368326585e-16 1.0
outer loop
vertex 3.3 36.0 3.00000000000001
vertex 28.3 3.0 3.00000000000002
vertex 28.3 36.0 3.00000000000001
endloop
endfacet
facet normal -1.0 -0.0 -0.0
outer loop
vertex 30.3 36.0 29.5
vertex 30.3 34.0 26.5
vertex 30.3 34.0 29.5
endloop
endfacet
facet normal -1.0 -0.0 -0.0
outer loop
vertex 30.3 34.0 26.5
vertex 30.3 36.0 29.5
vertex 30.3 36.0 26.5
endloop
endfacet
facet normal -1.0 0.0 0.0
outer loop
vertex 30.3 34.0 29.5
vertex 30.3 5.0 26.5
vertex 30.3 5.0 29.5
endloop
endfacet
facet normal -1.0 0.0 0.0
outer loop
vertex 30.3 5.0 26.5
vertex 30.3 34.0 5.00000000000001
vertex 30.3 5.0 5.00000000000002
endloop
endfacet
facet normal -1.0 0.0 0.0
outer loop
vertex 30.3 34.0 5.00000000000001
vertex 30.3 5.0 26.5
vertex 30.3 34.0 29.5
endloop
endfacet
facet normal -1.0 0.0 0.0
outer loop
vertex 30.3 34.0 5.00000000000001
vertex 30.3 34.0 29.5
vertex 30.3 34.0 26.5
endloop
endfacet
facet normal 0.0 0.0 1.0
outer loop
vertex 30.3 36.0 26.5
vertex 28.3 36.0 26.5
vertex 30.3 34.0 26.5
endloop
endfacet
facet normal 0.707106781186547 0.707106781186549 3.89456527837577e-17
outer loop
vertex 1.3 5.0 5.00000000000001
vertex 3.3 3.0 26.5
vertex 3.3 3.0 3.00000000000001
endloop
endfacet
facet normal 0.707106781186547 0.707106781186549 3.89456527837577e-17
outer loop
vertex 3.3 3.0 26.5
vertex 1.3 5.0 5.00000000000001
vertex 1.3 5.0 26.5
endloop
endfacet
facet normal 0.0 0.0 1.0
outer loop
vertex 3.3 36.0 26.5
vertex 1.3 36.0 26.5
vertex 1.3 34.0 26.5
endloop
endfacet
facet normal -4.98352507532341e-32 -1.0 1.4314550672832e-16
outer loop
vertex 32.0 1.3 29.5
vertex 23.3 1.3 6.0
vertex 32.0 1.3 1.30000000000002
endloop
endfacet
facet normal -4.98352507532341e-32 -1.0 1.4314550672832e-16
outer loop
vertex 23.3 1.3 6.0
vertex 32.0 1.3 29.5
vertex 23.3 1.3 25.0
endloop
endfacet
facet normal -4.98352507532341e-32 -1.0 1.4314550672832e-16
outer loop
vertex 23.3 1.3 25.0
vertex 32.0 1.3 29.5
vertex 8.29999999999998 1.3 25.0
endloop
endfacet
facet normal -4.98352507532341e-32 -1.0 1.4314550672832e-16
outer loop
vertex 8.29999999999998 1.3 25.0
vertex 32.0 1.3 29.5
vertex -0.399999999999999 1.3 29.5
endloop
endfacet
facet normal -4.98352507532341e-32 -1.0 1.4314550672832e-16
outer loop
vertex -0.399999999999996 1.3 1.30000000000001
vertex 8.29999999999998 1.3 6.0
vertex -0.399999999999999 1.3 29.5
endloop
endfacet
facet normal -4.98352507532341e-32 -1.0 1.4314550672832e-16
outer loop
vertex 8.29999999999998 1.3 6.0
vertex -0.399999999999996 1.3 1.30000000000001
vertex 32.0 1.3 1.30000000000002
endloop
endfacet
facet normal -4.98352507532341e-32 -1.0 1.4314550672832e-16
outer loop
vertex 8.29999999999998 1.3 6.0
vertex 32.0 1.3 1.30000000000002
vertex 23.3 1.3 6.0
endloop
endfacet
facet normal -4.98352507532341e-32 -1.0 1.4314550672832e-16
outer loop
vertex -0.399999999999999 1.3 29.5
vertex 8.29999999999998 1.3 6.0
vertex 8.29999999999998 1.3 25.0
endloop
endfacet
facet normal 1.0 0.0 0.0
outer loop
vertex 8.29999999999998 3.0 6.0
vertex 8.29999999999998 1.3 25.0
vertex 8.29999999999998 1.3 6.0
endloop
endfacet
facet normal 1.0 0.0 0.0
outer loop
vertex 8.29999999999998 1.3 25.0
vertex 8.29999999999998 3.0 6.0
vertex 8.29999999999998 3.0 25.0
endloop
endfacet
facet normal -0.0 -0.0 -1.0
outer loop
vertex 23.3 3.0 25.0
vertex 8.29999999999998 1.3 25.0
vertex 8.29999999999998 3.0 25.0
endloop
endfacet
facet normal -0.0 -0.0 -1.0
outer loop
vertex 8.29999999999998 1.3 25.0
vertex 23.3 3.0 25.0
vertex 23.3 1.3 25.0
endloop
endfacet
facet normal -1.05748743095546e-15 1.0 0.0
outer loop
vertex 1.3 3.0 29.5
vertex 3.3 3.0 26.5
vertex 1.3 3.0 26.5
endloop
endfacet
facet normal -1.05748743095546e-15 1.0 0.0
outer loop
vertex 3.3 3.0 26.5
vertex 1.3 3.0 29.5
vertex 3.3 3.0 29.5
endloop
endfacet
facet normal 1.0 1.05748743095546e-15 0.0
outer loop
vertex 1.3 5.0 26.5
vertex 1.3 3.0 29.5
vertex 1.3 3.0 26.5
endloop
endfacet
facet normal 1.0 1.05748743095546e-15 0.0
outer loop
vertex 1.3 3.0 29.5
vertex 1.3 5.0 26.5
vertex 1.3 5.0 29.5
endloop
endfacet
facet normal 0.707106781186548 -0.707106781186547 -2.54236917459066e-17
outer loop
vertex 3.3 36.0 3.00000000000001
vertex 1.3 34.0 9.98784152409455
vertex 1.3 34.0 5.00000000000001
endloop
endfacet
facet normal 0.707106781186548 -0.707106781186547 -2.54236917459066e-17
outer loop
vertex 1.3 34.0 9.98784152409455
vertex 3.3 36.0 3.00000000000001
vertex 1.3 34.0 26.5
endloop
endfacet
facet normal 0.707106781186548 -0.707106781186547 -2.54236917459066e-17
outer loop
vertex 1.3 34.0 26.5
vertex 3.3 36.0 3.00000000000001
vertex 3.3 36.0 26.5
endloop
endfacet
facet normal 0.707106781186548 -0.707106781186547 -2.54236917459066e-17
outer loop
vertex 3.3 36.0 26.5
vertex 3.3 36.0 3.00000000000001
vertex 3.3 36.0 9.98784152409455
endloop
endfacet
facet normal 0.0 0.0 1.0
outer loop
vertex 3.3 3.0 26.5
vertex 1.3 5.0 26.5
vertex 1.3 3.0 26.5
endloop
endfacet
facet normal 1.0 0.0 0.0
outer loop
vertex 1.3 36.0 26.5
vertex 1.3 34.0 29.5
vertex 1.3 34.0 26.5
endloop
endfacet
facet normal 1.0 0.0 0.0
outer loop
vertex 1.3 34.0 29.5
vertex 1.3 36.0 26.5
vertex 1.3 36.0 29.5
endloop
endfacet
facet normal 1.05748743095546e-15 1.0 0.0
outer loop
vertex 28.3 3.0 29.5
vertex 30.3 3.0 26.5
vertex 28.3 3.0 26.5
endloop
endfacet
facet normal 1.05748743095546e-15 1.0 0.0
outer loop
vertex 30.3 3.0 26.5
vertex 28.3 3.0 29.5
vertex 30.3 3.0 29.5
endloop
endfacet
facet normal -1.0 0.0 0.0
outer loop
vertex 30.3 5.0 29.5
vertex 30.3 3.0 26.5
vertex 30.3 3.0 29.5
endloop
endfacet
facet normal -1.0 0.0 0.0
outer loop
vertex 30.3 3.0 26.5
vertex 30.3 5.0 29.5
vertex 30.3 5.0 26.5
endloop
endfacet
facet normal 0.0 0.0 1.0
outer loop
vertex 30.3 5.0 26.5
vertex 28.3 3.0 26.5
vertex 30.3 3.0 26.5
endloop
endfacet
facet normal 0.707106781186547 -4.0201964163879e-18 0.707106781186548
outer loop
vertex 3.3 3.0 3.00000000000001
vertex 1.3 34.0 5.00000000000001
vertex 1.3 5.0 5.00000000000001
endloop
endfacet
facet normal 0.707106781186547 -4.0201964163879e-18 0.707106781186548
outer loop
vertex 1.3 34.0 5.00000000000001
vertex 3.3 3.0 3.00000000000001
vertex 3.3 36.0 3.00000000000001
endloop
endfacet
facet normal 0.0 -1.0 0.0
outer loop
vertex 3.3 36.0 29.5
vertex 1.3 36.0 26.5
vertex 3.3 36.0 26.5
endloop
endfacet
facet normal 0.0 -1.0 0.0
outer loop
vertex 1.3 36.0 26.5
vertex 3.3 36.0 29.5
vertex 1.3 36.0 29.5
endloop
endfacet
endsolid rj45_tinymicroV2
