solid rj45_tinymicroV2
facet normal 6.08871386976092e-31 1.0 -2.86291013456639e-16
outer loop
vertex 33.7 37.7 2.80000000000002
vertex 66.1 37.7 1.30000000000016
vertex 33.7 37.7 1.30000000000002
endloop
endfacet
facet normal 6.08871386976092e-31 1.0 -2.86291013456639e-16
outer loop
vertex 66.1 37.7 1.30000000000016
vertex 33.7 37.7 2.80000000000002
vertex 66.1 37.7 2.80000000000015
endloop
endfacet
facet normal -8.70360025477746e-17 -1.0 1.43145506728319e-16
outer loop
vertex 66.1 1.29999999999999 1.30000000000017
vertex 33.7 1.3 2.80000000000002
vertex 33.7 1.3 1.30000000000002
endloop
endfacet
facet normal -8.70360025477746e-17 -1.0 1.43145506728319e-16
outer loop
vertex 33.7 1.3 2.80000000000002
vertex 66.1 1.29999999999999 1.30000000000017
vertex 66.1 1.29999999999999 2.80000000000016
endloop
endfacet
facet normal 4.39291949867114e-15 -1.31347800129831e-16 -1.0
outer loop
vertex 66.1 37.7 1.30000000000016
vertex 33.7 1.3 1.30000000000002
vertex 33.7 37.7 1.30000000000002
endloop
endfacet
facet normal 4.39291949867114e-15 -1.31347800129831e-16 -1.0
outer loop
vertex 33.7 1.3 1.30000000000002
vertex 66.1 37.7 1.30000000000016
vertex 66.1 1.29999999999999 1.30000000000017
endloop
endfacet
facet normal -4.21884749357559e-15 2.86291013456639e-16 1.0
outer loop
vertex 64.3 3.1 4.30000000000014
vertex 35.5 35.9 4.30000000000001
vertex 35.5 3.1 4.30000000000002
endloop
endfacet
facet normal -4.21884749357559e-15 2.86291013456639e-16 1.0
outer loop
vertex 35.5 35.9 4.30000000000001
vertex 64.3 3.1 4.30000000000014
vertex 64.3 35.9 4.30000000000013
endloop
endfacet
facet normal -6.08871386976092e-31 -1.0 2.86291013456639e-16
outer loop
vertex 64.3 3.1 2.80000000000014
vertex 35.5 3.1 4.30000000000002
vertex 35.5 3.1 2.80000000000002
endloop
endfacet
facet normal -6.08871386976092e-31 -1.0 2.86291013456639e-16
outer loop
vertex 35.5 3.1 4.30000000000002
vertex 64.3 3.1 2.80000000000014
vertex 64.3 3.1 4.30000000000014
endloop
endfacet
facet normal -4.39291949867114e-15 1.31347800129831e-16 1.0
outer loop
vertex 33.7 1.3 2.80000000000002
vertex 35.5 3.1 2.80000000000002
vertex 33.7 37.7 2.80000000000002
endloop
endfacet
facet normal -4.39291949867114e-15 1.31347800129831e-16 1.0
outer loop
vertex 35.5 3.1 2.80000000000002
vertex 33.7 1.3 2.80000000000002
vertex 66.1 1.29999999999999 2.80000000000016
endloop
endfacet
facet normal -4.39291949867114e-15 1.31347800129831e-16 1.0
outer loop
vertex 35.5 3.1 2.80000000000002
vertex 66.1 1.29999999999999 2.80000000000016
vertex 64.3 3.1 2.80000000000014
endloop
endfacet
facet normal -4.39291949867114e-15 1.31347800129831e-16 1.0
outer loop
vertex 64.3 3.1 2.80000000000014
vertex 66.1 1.29999999999999 2.80000000000016
vertex 64.3 35.9 2.80000000000014
endloop
endfacet
facet normal -4.39291949867114e-15 1.31347800129831e-16 1.0
outer loop
vertex 33.7 37.7 2.80000000000002
vertex 35.5 35.9 2.80000000000001
vertex 66.1 37.7 2.80000000000015
endloop
endfacet
facet normal -4.39291949867114e-15 1.31347800129831e-16 1.0
outer loop
vertex 35.5 35.9 2.80000000000001
vertex 33.7 37.7 2.80000000000002
vertex 35.5 3.1 2.80000000000002
endloop
endfacet
facet normal -4.39291949867114e-15 1.31347800129831e-16 1.0
outer loop
vertex 66.1 37.7 2.80000000000015
vertex 35.5 35.9 2.80000000000001
vertex 64.3 35.9 2.80000000000014
endloop
endfacet
facet normal -4.39291949867114e-15 1.31347800129831e-16 1.0
outer loop
vertex 66.1 37.7 2.80000000000015
vertex 64.3 35.9 2.80000000000014
vertex 66.1 1.29999999999999 2.80000000000016
endloop
endfacet
facet normal 1.0 2.42098770823202e-18 4.39509539873484e-15
outer loop
vertex 66.1 37.7 1.30000000000016
vertex 66.1 1.29999999999999 2.80000000000016
vertex 66.1 1.29999999999999 1.30000000000017
endloop
endfacet
facet normal 1.0 2.42098770823202e-18 4.39509539873484e-15
outer loop
vertex 66.1 1.29999999999999 2.80000000000016
vertex 66.1 37.7 1.30000000000016
vertex 66.1 37.7 2.80000000000015
endloop
endfacet
facet normal -1.0 -5.98946737578666e-31 -4.21884749357559e-15
outer loop
vertex 33.7 1.3 2.80000000000002
vertex 33.7 37.7 1.30000000000002
vertex 33.7 1.3 1.30000000000002
endloop
endfacet
facet normal -1.0 -5.98946737578666e-31 -4.21884749357559e-15
outer loop
vertex 33.7 37.7 1.30000000000002
vertex 33.7 1.3 2.80000000000002
vertex 33.7 37.7 2.80000000000002
endloop
endfacet
facet normal 6.08871386976092e-31 1.0 -2.86291013456639e-16
outer loop
vertex 35.5 35.9 4.30000000000001
vertex 64.3 35.9 2.80000000000014
vertex 35.5 35.9 2.80000000000001
endloop
endfacet
facet normal 6.08871386976092e-31 1.0 -2.86291013456639e-16
outer loop
vertex 64.3 35.9 2.80000000000014
vertex 35.5 35.9 4.30000000000001
vertex 64.3 35.9 4.30000000000013
endloop
endfacet
facet normal -1.0 -5.98946737578666e-31 -4.21884749357559e-15
outer loop
vertex 35.5 3.1 4.30000000000002
vertex 35.5 35.9 2.80000000000001
vertex 35.5 3.1 2.80000000000002
endloop
endfacet
facet normal -1.0 -5.98946737578666e-31 -4.21884749357559e-15
outer loop
vertex 35.5 35.9 2.80000000000001
vertex 35.5 3.1 4.30000000000002
vertex 35.5 35.9 4.30000000000001
endloop
endfacet
facet normal 1.0 1.07468234853203e-17 4.21884749357559e-15
outer loop
vertex 64.3 35.9 2.80000000000014
vertex 64.3 3.1 4.30000000000014
vertex 64.3 3.1 2.80000000000014
endloop
endfacet
facet normal 1.0 1.07468234853203e-17 4.21884749357559e-15
outer loop
vertex 64.3 3.1 4.30000000000014
vertex 64.3 35.9 2.80000000000014
vertex 64.3 35.9 4.30000000000013
endloop
endfacet
endsolid rj45_tinymicroV2
